#!OML:ASF F:\VICON\USERDATA\INSTALL\rory3\rory3.ASF
:FULLY-SPECIFIED
:DEGREES
303
root 1.42061 22.6562 0.920203 -162.339 -2.17856 179.47
lowerback 10.9156 0.742383 -4.59268
upperback 1.63939 0.321806 0.538317
thorax -4.44063 0.170926 3.11169
lowerneck -17.8513 1.159 -9.80749
upperneck 38.4689 0.29281 2.76237
head 16.9344 -2.09808 2.68652
rclavicle 7.23079e-015 2.31087e-015
rhumerus -12.9186 4.6674 -76.957
rradius 83.1917
rwrist -1.17735
rhand -25.7383 9.87713
rfingers 7.12502
rthumb 0.798522 -20.1011
lclavicle 7.23079e-015 2.31087e-015
lhumerus 9.737 -10.0571 79.0287
lradius 87.833
lwrist 25.8974
lhand -22.9346 35.5609
lfingers 7.12502
lthumb 3.50627 65.5118
rfemur -37.0417 -2.92696 21.2393
rtibia 51.3025
rfoot -24.0532 -1.04317
rtoes -10.366
lfemur -39.0113 1.83397 -25.9297
ltibia 36.1348
lfoot -13.4332 1.46173
ltoes -11.34
304
root 1.42795 22.6999 0.882136 -162.399 -2.1327 179.494
lowerback 10.9053 0.735334 -4.77384
upperback 1.6032 0.29712 0.606368
thorax -4.47205 0.164794 3.28923
lowerneck -17.8794 1.21485 -9.99369
upperneck 38.6374 0.319278 2.96463
head 17.0255 -2.10823 2.8154
rclavicle 9.26834e-015 -3.05631e-015
rhumerus -13.296 4.53594 -76.878
rradius 83.3126
rwrist -1.29839
rhand -24.0349 10.7924
rfingers 7.12502
rthumb 2.44363 -19.1733
lclavicle 9.26834e-015 -3.05631e-015
lhumerus 9.01477 -9.90167 79.4208
lradius 87.8618
lwrist 25.7715
lhand -23.1905 35.5177
lfingers 7.12502
lthumb 3.25912 65.4725
rfemur -37.4339 -2.90521 21.3966
rtibia 51.333
rfoot -24.5603 -0.948869
rtoes -10.3329
lfemur -38.5392 2.08282 -25.9288
ltibia 35.6052
lfoot -13.4561 1.19584
ltoes -13.2946
305
root 1.4323 22.7399 0.842715 -162.496 -2.30688 179.553
lowerback 10.8482 0.721385 -4.73536
upperback 1.67876 0.284382 0.62661
thorax -4.35986 0.151996 3.29048
lowerneck -17.9669 1.16865 -9.88269
upperneck 38.6497 0.239952 2.93701
head 17.0628 -2.12448 2.7704
rclavicle 8.94531e-016 -7.47927e-015
rhumerus -13.6094 4.10316 -76.8008
rradius 83.5927
rwrist -1.6644
rhand -22.077 11.3949
rfingers 7.12502
rthumb 4.33441 -18.5407
lclavicle 8.94531e-016 -7.47927e-015
lhumerus 8.75907 -10.044 79.7447
lradius 87.7437
lwrist 25.9513
lhand -23.8321 35.6469
lfingers 7.12502
lthumb 2.63947 65.6104
rfemur -37.7245 -3.04491 21.616
rtibia 51.2819
rfoot -24.9318 -0.704922
rtoes -10.0197
lfemur -38.0435 2.06599 -25.8136
ltibia 35.1305
lfoot -13.2323 0.999632
ltoes -14.8891
306
root 1.43555 22.7791 0.803908 -162.644 -2.56428 179.43
lowerback 10.8983 0.750425 -4.71881
upperback 1.7662 0.310621 0.508868
thorax -4.29788 0.157396 3.15386
lowerneck -18.0139 1.09264 -9.50556
upperneck 38.641 0.0830726 2.74742
head 17.0875 -2.151 2.59031
rclavicle -7.72775e-015 8.99501e-015
rhumerus -13.9906 3.39708 -76.7567
rradius 83.9537
rwrist -1.84713
rhand -19.8829 11.3378
rfingers 7.12502
rthumb 6.45284 -18.5439
lclavicle -7.72775e-015 8.99501e-015
lhumerus 8.64265 -10.4819 79.9889
lradius 87.5901
lwrist 26.1659
lhand -24.4546 35.5437
lfingers 7.12502
lthumb 2.03828 65.5137
rfemur -37.9196 -3.19376 21.5997
rtibia 51.146
rfoot -25.2221 -0.4259
rtoes -9.63987
lfemur -37.5161 1.8225 -25.822
ltibia 34.7065
lfoot -12.7849 0.8492
ltoes -15.5011
307
root 1.44769 22.8164 0.765411 -162.68 -2.43267 179.387
lowerback 10.8442 0.876585 -4.94608
upperback 1.74413 0.452015 0.436571
thorax -4.30488 0.231269 3.18592
lowerneck -17.9631 1.07284 -9.27384
upperneck 38.7058 -0.0201015 2.63828
head 17.1197 -2.18158 2.47952
rclavicle 6.28657e-015 -5.06901e-015
rhumerus -14.4256 2.86375 -76.7227
rradius 84.2826
rwrist -1.80821
rhand -17.4619 11.3387
rfingers 7.12502
rthumb 8.78962 -18.4583
lclavicle 6.28657e-015 -5.06901e-015
lhumerus 8.24433 -10.7287 80.2444
lradius 87.5572
lwrist 26.227
lhand -24.829 35.1553
lfingers 7.12502
lthumb 1.6767 65.1285
rfemur -38.2052 -2.9398 21.6024
rtibia 50.9213
rfoot -25.3996 -0.00283724
rtoes -9.06734
lfemur -37.145 2.24639 -25.9004
ltibia 34.3354
lfoot -12.4886 0.421106
ltoes -15.9701
308
root 1.45478 22.8478 0.730927 -162.804 -2.48699 179.43
lowerback 10.9827 0.812781 -4.98883
upperback 1.67637 0.359326 0.500009
thorax -4.44495 0.192827 3.29015
lowerneck -17.9038 1.16544 -9.47214
upperneck 38.8861 0.0503582 2.80648
head 17.1933 -2.18667 2.60148
rclavicle 4.05024e-015 1.79403e-014
rhumerus -14.8088 2.81417 -76.6369
rradius 84.5115
rwrist -1.70308
rhand -15.1991 11.3296
rfingers 7.12502
rthumb 10.9727 -18.3636
lclavicle 4.05024e-015 1.79403e-014
lhumerus 7.66745 -10.5586 80.5033
lradius 87.489
lwrist 26.1218
lhand -25.1735 34.8999
lfingers 7.12502
lthumb 1.34395 64.8754
rfemur -38.3922 -2.78204 21.6685
rtibia 50.6272
rfoot -25.3294 0.220937
rtoes -8.4451
lfemur -36.7028 2.18781 -25.7642
ltibia 33.9886
lfoot -12.0966 0.283862
ltoes -16.234
309
root 1.462 22.8782 0.695016 -162.863 -2.63232 179.344
lowerback 10.9838 0.571884 -5.21964
upperback 1.64878 0.0245921 0.7074
thorax -4.44306 0.0344797 3.68819
lowerneck -17.9054 1.32646 -10.09
upperneck 38.9734 0.408115 3.00099
head 17.2044 -2.12774 2.86371
rclavicle -2.98177e-016 1.21756e-014
rhumerus -14.9499 3.39593 -76.3655
rradius 84.7296
rwrist -1.68464
rhand -13.3292 11.4821
rfingers 7.12502
rthumb 12.7759 -18.107
lclavicle -2.98177e-016 1.21756e-014
lhumerus 7.16692 -9.78856 80.8893
lradius 87.3276
lwrist 25.7837
lhand -25.3887 34.8221
lfingers 7.12502
lthumb 1.13614 64.7988
rfemur -38.627 -2.67058 21.6216
rtibia 50.2949
rfoot -25.1312 0.252316
rtoes -7.70675
lfemur -36.3732 2.17655 -25.7892
ltibia 33.7119
lfoot -11.7496 0.0625121
ltoes -16.5784
310
root 1.47117 22.9078 0.659206 -162.947 -2.89233 179.182
lowerback 10.9586 0.496457 -5.3745
upperback 1.65943 -0.0926329 0.707596
thorax -4.40563 -0.0224684 3.79303
lowerneck -17.718 1.31229 -10.0445
upperneck 38.8545 0.390177 2.90558
head 17.0951 -2.13483 2.80518
rclavicle 3.60297e-015 -5.66536e-015
rhumerus -15.3477 3.16718 -76.1638
rradius 85.157
rwrist -1.6086
rhand -11.4792 11.6977
rfingers 7.12502
rthumb 14.5588 -17.7714
lclavicle 3.60297e-015 -5.66536e-015
lhumerus 6.81191 -9.70536 81.2194
lradius 87.2018
lwrist 25.4858
lhand -25.5902 34.6797
lfingers 7.12502
lthumb 0.941571 64.6573
rfemur -38.7637 -2.56123 21.4837
rtibia 49.8972
rfoot -25.1435 0.452674
rtoes -7.67428
lfemur -36.0481 2.14337 -25.8645
ltibia 33.522
lfoot -11.557 -0.153696
ltoes -17.4209
311
root 1.48026 22.9309 0.624002 -162.942 -3.09436 179.121
lowerback 10.8411 0.417346 -5.41474
upperback 1.67418 -0.193261 0.725928
thorax -4.31404 -0.0739981 3.84852
lowerneck -17.6839 1.35028 -10.0949
upperneck 38.8218 0.465045 2.92143
head 17.0608 -2.10702 2.83472
rclavicle 3.8763e-015 4.52235e-015
rhumerus -15.5832 2.94221 -75.9574
rradius 85.4717
rwrist -1.44903
rhand -9.91873 11.7996
rfingers 7.12502
rthumb 16.0619 -17.5547
lclavicle 3.8763e-015 4.52235e-015
lhumerus 6.48309 -9.56884 81.4921
lradius 87.1181
lwrist 25.2357
lhand -25.6869 34.4609
lfingers 7.12502
lthumb 0.84814 64.439
rfemur -38.9836 -2.36413 21.4306
rtibia 49.4371
rfoot -25.0523 0.688196
rtoes -7.96882
lfemur -35.8621 2.10008 -25.8253
ltibia 33.3696
lfoot -11.2655 -0.408151
ltoes -18.0396
312
root 1.48968 22.9491 0.587827 -162.944 -3.31119 179.256
lowerback 10.7084 0.353665 -5.22873
upperback 1.69629 -0.245401 0.756121
thorax -4.21207 -0.105208 3.7808
lowerneck -17.7753 1.37044 -10.1226
upperneck 38.9643 0.447797 3.02635
head 17.161 -2.11695 2.88601
rclavicle 2.73329e-015 2.5345e-015
rhumerus -15.7531 2.59964 -75.8287
rradius 85.7339
rwrist -1.37528
rhand -8.46188 11.757
rfingers 7.12502
rthumb 17.4644 -17.4785
lclavicle 2.73329e-015 2.5345e-015
lhumerus 6.29441 -9.54269 81.6637
lradius 86.9264
lwrist 24.9896
lhand -25.8476 34.2941
lfingers 7.12502
lthumb 0.69295 64.2727
rfemur -39.2422 -2.08989 21.5644
rtibia 48.8967
rfoot -24.7934 0.932554
rtoes -7.55643
lfemur -35.7036 2.10604 -25.5741
ltibia 33.2271
lfoot -10.9021 -0.834853
ltoes -18.0144
313
root 1.5013 22.9728 0.549172 -163.004 -3.53089 179.188
lowerback 10.6149 0.312065 -5.27017
upperback 1.70402 -0.300291 0.728257
thorax -4.14626 -0.133603 3.78158
lowerneck -17.6007 1.34724 -10.0414
upperneck 38.9301 0.349667 3.00881
head 17.1072 -2.14897 2.8422
rclavicle -8.15017e-015 1.37161e-014
rhumerus -16.0801 2.2199 -75.7001
rradius 86.1484
rwrist -1.55118
rhand -7.0221 11.6614
rfingers 7.12502
rthumb 18.8496 -17.4453
lclavicle -8.15017e-015 1.37161e-014
lhumerus 6.06977 -9.63139 81.7765
lradius 86.7421
lwrist 24.9207
lhand -25.9245 33.9289
lfingers 7.12502
lthumb 0.618695 63.9078
rfemur -39.4454 -1.82891 21.4374
rtibia 48.3183
rfoot -24.4341 1.17254
rtoes -7.33213
lfemur -35.4363 2.19004 -25.596
ltibia 33.0938
lfoot -10.7004 -1.25994
ltoes -18.2742
314
root 1.51207 23.0027 0.512005 -163.02 -3.73081 179.03
lowerback 10.5009 0.260136 -5.4141
upperback 1.68414 -0.377186 0.710808
thorax -4.0949 -0.169509 3.85416
lowerneck -17.4674 1.33421 -10.0932
upperneck 38.9365 0.282579 3.07148
head 17.0818 -2.18145 2.8648
rclavicle 1.46852e-014 8.49804e-015
rhumerus -16.434 1.97993 -75.4201
rradius 86.6159
rwrist -1.91694
rhand -5.84766 11.7038
rfingers 7.12502
rthumb 19.9788 -17.2891
lclavicle 1.46852e-014 8.49804e-015
lhumerus 5.82429 -9.64892 81.9405
lradius 86.527
lwrist 24.979
lhand -25.9805 33.4715
lfingers 7.12502
lthumb 0.564597 63.4505
rfemur -39.5355 -1.59873 21.1954
rtibia 47.7312
rfoot -24.0655 1.43891
rtoes -7.71832
lfemur -35.1859 2.20058 -25.6731
ltibia 32.945
lfoot -10.5271 -1.59962
ltoes -17.8726
315
root 1.52215 23.0281 0.473896 -162.983 -4.00997 179.049
lowerback 10.2869 0.204364 -5.29816
upperback 1.69074 -0.421652 0.722941
thorax -3.96496 -0.195479 3.80453
lowerneck -17.5634 1.28058 -10.1634
upperneck 39.0627 0.173061 3.1726
head 17.1851 -2.23318 2.90487
rclavicle 1.48343e-014 9.14409e-015
rhumerus -16.7287 1.65034 -75.1317
rradius 87.0976
rwrist -2.38202
rhand -5.14476 11.7388
rfingers 7.12502
rthumb 20.6543 -17.1823
lclavicle 1.48343e-014 9.14409e-015
lhumerus 5.62027 -9.69835 82.1663
lradius 86.3726
lwrist 24.906
lhand -25.9534 33.2975
lfingers 7.12502
lthumb 0.590736 63.2765
rfemur -39.573 -1.39613 21.1642
rtibia 47.1387
rfoot -23.804 1.71671
rtoes -8.18817
lfemur -35.0257 2.17712 -25.5534
ltibia 32.759
lfoot -10.2759 -2.0063
ltoes -18.0284
